' Generated by UML Generator
' Encoded: ZP1D3e9038NtFKMN6XFYseL1J8nirGiCGvM6OOOCnOK_TvT054LCNFQzr_PhmqgKbxemKELiI-LLWTgegbg9U4vgeLWxk-SBuHmoJWarUsq8e4rXv5n-y5pY5H1dILDj39yocKmNU7QSFjMj4p93SQtyZgoethW3i1NoHwK9u-Wzqs_ufwsZ-4drtT02zlbFtYR-EZG8Rii1sfZP3XWpEX88oQRDsny
' URL: http://www.plantuml.com/plantuml/uml/ZP1D3e9038NtFKMN6XFYseL1J8nirGiCGvM6OOOCnOK_TvT054LCNFQzr_PhmqgKbxemKELiI-LLWTgegbg9U4vgeLWxk-SBuHmoJWarUsq8e4rXv5n-y5pY5H1dILDj39yocKmNU7QSFjMj4p93SQtyZgoethW3i1NoHwK9u-Wzqs_ufwsZ-4drtT02zlbFtYR-EZG8Rii1sfZP3XWpEX88oQRDsny
' Generated on: 2026-03-19T15:21:13.695352300

@startuml
skinparam classAttributeIconSize 0
hide circle

class BookTrip {
  +bookFlight(): void
  +bookHotel(): void
  +bookCarRental(): void
}

interface IBookCarRental {
  +bookCarRental(): void
}

interface IBookFlight {
  +bookFlight(): void
}

interface IBookHotel {
  +bookHotel(): void
}

BookTrip ..|> IBookCarRental
BookTrip ..|> IBookHotel
BookTrip ..|> IBookFlight
@enduml