' Generated by UML Generator
' Encoded: jL9BQyCm3BxxL_YOKb9sxc6q6wpqjCAWTzLH4b5NBhApiKVtswUaX2sXXswmYx7r-1wI5p61fERWJTmJ7q7WO9s769Sf2UsQX6iN-8dUqDwOcWgqZiHvDAQhilSWzjrOcrS8ChV4gNqSDOLSeIn9xg1wvBdTXU0HkCtcUdngOpRHozJLe9KhRS-u0vZqC5Dm3ZqA9Cmq-1oeQAFnXPAhDqEAB7npzBKdOnG8fGI7TltWNuchBTQayZlDlwTEiCTGbZz37hZ8BZEk93HSNCjujQtBweRKMtH_zddgTxjHR_yugVRhp6OVjwD1cT6cyhmjwGsPqLH7sRFaC-e0nYoG2_tcNm
' URL: http://www.plantuml.com/plantuml/uml/jL9BQyCm3BxxL_YOKb9sxc6q6wpqjCAWTzLH4b5NBhApiKVtswUaX2sXXswmYx7r-1wI5p61fERWJTmJ7q7WO9s769Sf2UsQX6iN-8dUqDwOcWgqZiHvDAQhilSWzjrOcrS8ChV4gNqSDOLSeIn9xg1wvBdTXU0HkCtcUdngOpRHozJLe9KhRS-u0vZqC5Dm3ZqA9Cmq-1oeQAFnXPAhDqEAB7npzBKdOnG8fGI7TltWNuchBTQayZlDlwTEiCTGbZz37hZ8BZEk93HSNCjujQtBweRKMtH_zddgTxjHR_yugVRhp6OVjwD1cT6cyhmjwGsPqLH7sRFaC-e0nYoG2_tcNm
' Generated on: 2026-03-19T15:23:31.011537600

@startuml
skinparam classAttributeIconSize 0
hide circle

class Car {
  -gear: int
  -passengerAirBagOn: boolean
  --
  ~Car()
  +changeGear(n: int): int
  +accelerate(): void
  +switchPassengerAirBag(on: boolean): void
}

interface IFlyingVehicle {
  +changeGear(n: int): int
  +accelerate(): void
  +takeoff(): void
  +land(): void
}

interface IGroundVehicle {
  +changeGear(n: int): int
  +switchPassengerAirBag(on: boolean): void
  +accelerate(): void
}

interface IVechicle {
  +changeGear(n: int): int
  +accelerate(): void
}

class Plane {
  +changeGear(n: int): int
  +accelerate(): void
  +takeoff(): void
  +land(): void
}

Car ..|> IGroundVehicle
IFlyingVehicle --|> IVechicle
IGroundVehicle --|> IVechicle
Plane ..|> IFlyingVehicle
@enduml